<svg width="323" height="248" viewBox="0 0 323 248" fill="none" xmlns="http://www.w3.org/2000/svg">
<g filter="url(#filter0_d_1382_4)">
<rect x="4" width="315" height="3" rx="1.5" fill="#FA4A0C"/>
</g>
<g filter="url(#filter1_d_1382_4)">
<rect x="4" y="237" width="315" height="3" rx="1.5" fill="#FA4A0C"/>
</g>
<path d="M292.35 77.5813C299.756 62.3771 284.702 51.8333 265.018 46.6625C266.499 43.0354 266.929 38.2875 262.753 33.7542C257.397 27.9521 260.956 19.5 260.956 19.5C260.956 19.5 249.716 30.6729 256.813 38.3771C259.431 41.2167 260.794 43.7104 261.446 45.7958C256.012 44.5889 250.51 43.7718 244.976 43.35C246.629 38.5083 246.789 32.4271 241.581 26.6042C234.451 18.6229 239.199 7 239.199 7C239.199 7 224.21 22.3625 233.673 32.9542C237.128 36.8167 238.948 40.2167 239.829 43.0667C233.963 42.8771 228.318 43.1542 223.303 43.9104C223.901 40.7958 223.402 37.2146 220.214 33.7563C214.858 27.9542 218.42 19.5 218.42 19.5C218.42 19.5 207.177 30.6729 214.276 38.3771C216.5 40.7896 217.803 42.9437 218.551 44.8208C217.704 45.0208 216.883 45.2375 216.092 45.4729C191.651 43.0083 180.99 48.45 185.861 59.125C177.362 68.2833 180.555 78.7354 191.191 86.7333C196.739 111.36 198.168 132 239.959 132C277.249 132 282.401 115.562 287.02 94.525C300.878 91.5521 297.925 84.3938 292.35 77.5813ZM288.895 75.1208C284.253 85.7875 264.108 93.8167 239.959 93.8167C215.812 93.8167 195.666 85.7875 191.022 75.1208C190.924 74.8042 190.829 74.475 190.734 74.1542C192.946 68.1083 200.134 62.8625 210.23 59.35C207.858 61.8208 207.365 65.5104 213.608 66.8042C215.394 67.175 220.299 65.8917 218.155 59.3333C217.855 58.4167 217.366 57.8021 216.765 57.4312C223.701 55.7208 231.576 54.7354 239.959 54.7354C240.898 54.7354 241.82 54.7708 242.747 54.7937C237.909 56.6437 233.963 62.3437 243.841 64.025C246.022 64.3958 252.009 63.1125 249.391 56.5542C249.163 55.9696 248.796 55.4597 248.328 55.075C257.583 55.8083 265.968 57.7292 272.746 60.4979C266.785 60.1396 260.173 64.0979 270.762 69.6708C273.034 70.8667 279.936 71.9646 278.987 64.7229C278.918 64.1997 278.747 63.6983 278.484 63.2521C283.903 66.3292 287.683 70.0604 289.181 74.1542L288.895 75.1208Z" fill="#FF4B3A"/>
<path d="M227.085 79.5854C233.335 79.5854 237.503 73.4959 240.769 71.1125C245.331 67.7792 256.804 66.4792 246.7 66.2167C237.117 65.9688 225.285 74.3521 217.377 73.775C204.285 72.8167 217.695 79.5854 227.085 79.5854Z" fill="#FF4B3A"/>
<path d="M240.591 92.0271C242.799 92.4854 248.867 90.8979 246.213 82.7875C243.214 73.6104 225.062 88.8063 240.591 92.0271Z" fill="#FF4B3A"/>
<path d="M206.224 71.9542C204.115 68.7458 201.056 64.6771 199.79 66.7958C198.06 69.6938 197.515 75.525 198.771 75.7833C208.623 77.8188 207.933 74.5521 206.224 71.9542Z" fill="#FF4B3A"/>
<path d="M263.499 73.2542C265.275 70.8833 261.728 65.1771 259.45 66.175C255.885 67.7375 253.83 66.6792 252.264 69.05C248.597 74.6021 261.084 76.4729 263.499 73.2542Z" fill="#FF4B3A"/>
<path d="M262.389 80.0479C259.833 78.8333 260.436 82.9021 256.661 79.6375C253.958 77.3 248.142 83.1958 251.978 87.2C256.247 91.6563 257.384 87.4208 259.178 87.7771C262.824 88.5 269.094 83.2354 262.389 80.0479Z" fill="#FF4B3A"/>
<path d="M219.891 81.4395C218.559 80.027 216.772 81.7312 215.763 83.8104C214.764 83.2812 213.95 83.1583 213.95 83.1583C213.186 80.8125 210.914 79.2041 210.914 79.2041C210.914 79.2041 211.121 81.6437 211.421 82.8333C208.911 81.8729 208.834 77.0396 208.834 77.0396C208.834 77.0396 207.15 78.125 207.303 79.9687C204.54 77.5666 202.187 78.6896 202.187 78.6896C202.187 78.6896 205.692 80.8146 206.176 82.2479C204.208 82.4125 203.059 83.1458 202.39 84.8521C202.392 84.8666 206.28 82.8583 209.157 84.3083C208.022 85.3083 208.587 87.8062 208.587 87.8062C211.264 84.7479 213.403 85.075 215.114 85.6229C214.907 86.5583 214.92 87.4125 215.288 87.9312C218.255 92.1354 228.593 91.1895 231.369 88.0812C234.731 84.3208 225.389 87.2708 219.891 81.4395Z" fill="#FF4B3A"/>
<path d="M227.193 65.6042C226.313 67.5084 226.307 68.9459 227.324 70.4417C227.338 70.4459 227.734 65.8209 230.366 63.9042C230.58 65.4667 232.858 66.2251 232.858 66.2251C231.036 59.2751 236.353 58.9126 236.328 56.4188C233.509 56.6751 231.908 58.8834 231.908 58.8834C229.648 58.3855 227.199 59.6584 227.199 59.6584C227.199 59.6584 229.25 60.7188 230.35 61.0542C228.297 62.8813 224.407 60.4709 224.407 60.4709C224.407 60.4709 224.407 62.5876 225.954 63.3897C222.623 64.7126 222.309 67.4626 222.309 67.4626C222.309 67.4626 225.801 65.3147 227.193 65.6042Z" fill="#FF4B3A"/>
<path d="M276.591 75.0958C277.392 73.4583 276.224 71.7562 276.224 71.7562C276.224 71.7562 274.428 76.1875 271.769 76.0354C272.469 75.0604 273.533 72.8937 273.533 72.8937C273.533 72.8937 270.861 73.4416 269.318 75.2896C269.318 75.2896 266.812 74.5416 264.407 76.1416C265.765 78.1625 270.238 75.0437 272.61 81.7979C272.61 81.7979 274.022 79.7291 273.332 78.3354C276.506 78.1875 279.379 81.65 279.389 81.6375C279.377 79.7833 278.581 78.6333 276.819 77.6666C277.778 76.5437 281.772 76.0333 281.772 76.0333C281.772 76.0333 280.002 74.0229 276.591 75.0958Z" fill="#FF4B3A"/>
<path d="M142.56 183.723C147.04 176.008 149.386 167.326 149.375 158.5C149.375 129.765 125.029 106.469 95 106.469C85.7778 106.458 76.7057 108.702 68.6444 112.988L64.6587 109.176C62.8448 107.444 60.3867 106.471 57.8238 106.471C55.2609 106.471 52.8028 107.444 50.9889 109.176L43.4525 116.384C41.6418 118.12 40.6249 120.473 40.6249 122.925C40.6249 125.378 41.6418 127.731 43.4525 129.467L47.4382 133.28C42.9588 140.994 40.6136 149.675 40.625 158.5C40.625 187.235 64.9669 210.531 95 210.531C104.222 210.542 113.295 208.298 121.356 204.01L125.341 207.824C127.155 209.557 129.614 210.53 132.177 210.53C134.74 210.53 137.199 209.557 139.013 207.824L146.546 200.616C148.356 198.88 149.373 196.527 149.373 194.075C149.373 191.622 148.356 189.27 146.546 187.533L142.56 183.723ZM49.1474 124.015C48.8461 123.726 48.677 123.333 48.677 122.925C48.677 122.516 48.8461 122.123 49.1474 121.834L56.6837 114.622C56.9861 114.333 57.3958 114.171 57.8229 114.171C58.25 114.171 58.6596 114.333 58.962 114.622L61.7805 117.321C58.1057 120.04 54.8077 123.196 51.9658 126.712L49.1474 124.015ZM95 199.15C71.5408 199.15 52.5204 180.952 52.5204 158.5C52.5204 136.05 71.5408 117.851 95 117.851C118.459 117.851 137.481 136.05 137.481 158.5C137.481 180.952 118.459 199.15 95 199.15ZM140.854 195.166L133.314 202.378C133.012 202.666 132.603 202.828 132.176 202.828C131.75 202.828 131.34 202.666 131.038 202.378L128.219 199.678C131.894 196.96 135.192 193.804 138.032 190.288L140.854 192.985C141.156 193.274 141.325 193.667 141.325 194.076C141.325 194.484 141.156 194.877 140.854 195.166Z" fill="#FF4B3A"/>
<path d="M112.333 156.825C117.374 166.976 119.724 170.363 128.745 163.384C137.759 156.41 141.938 139.55 108.762 122.683C99.7415 118.098 85.3303 126.785 86.9562 134.104C88.5856 141.427 107.301 146.677 112.333 156.825ZM128.794 148.409C134.949 148.409 125.013 151.637 119.09 156.531C116.219 158.904 117.6 148.409 128.794 148.409ZM120.58 135.417C126.739 135.417 116.803 138.64 110.879 143.538C108.017 145.907 109.38 135.417 120.58 135.417ZM107.338 126.953C113.491 126.953 103.553 130.181 97.6408 135.069C94.7662 137.441 96.1401 126.953 107.338 126.953Z" fill="#FF4B3A"/>
<path d="M113.854 177.524C106.497 182.531 101.984 188.463 103.751 190.78C106.934 194.967 106.934 194.967 120.248 185.9C127.594 180.899 132.118 174.961 130.351 172.647C127.154 168.462 127.154 168.462 113.854 177.524Z" fill="#FF4B3A"/>
<path d="M114.113 175.23C117.47 175.355 115.376 172.375 115.762 168.624C116.141 164.87 112.951 166.794 106.941 166.459C100.923 166.124 102.672 170.656 102.915 174.278C103.16 177.897 105.471 174.923 114.113 175.23Z" fill="#FF4B3A"/>
<path d="M92.0475 178.022C89.9957 176.799 88.2612 175.129 86.7169 173.246C88.1089 173.785 89.8 174.095 91.5508 174.415C92.3103 174.553 93.0697 174.692 93.7875 174.848C94.5723 175.022 95.1795 175.101 95.696 175.101C98.5127 175.101 98.8208 172.816 99.0057 171.447C99.1724 170.21 99.4026 168.514 100.563 166.275C101.172 165.092 100.961 164.199 100.677 163.656C99.93 162.22 98.161 161.898 95.9244 161.492C94.6774 161.265 93.2637 161.008 91.8572 160.543C90.8385 160.207 90.0356 160.051 89.3269 160.051C86.6118 160.051 85.9357 162.229 85.4409 163.818C85.1545 164.739 84.8301 165.786 84.1903 166.934C83.872 167.496 83.6551 168.105 83.5487 168.736C79.4669 162.118 76.5977 154.775 71.7583 153.07C71.646 153.031 71.5282 153.019 71.4158 152.986C71.4955 152.818 71.5463 152.667 71.6369 152.492C72.2459 151.311 72.0357 150.416 71.7511 149.873C71.1783 148.774 70.0057 148.328 68.485 147.997C70.2522 146.403 72.5903 144.051 75.9072 140.704C76.1663 140.443 76.4092 140.183 76.6575 139.921C76.4672 140.386 76.2407 140.874 75.9561 141.38C74.9737 143.142 75.5156 144.198 76.8025 144.909C75.8981 145.178 75.2474 145.614 74.952 146.241C72.5413 151.365 72.5413 151.365 88.5167 158.497C97.3309 162.434 105.565 163.33 106.901 160.505C109.315 155.369 109.315 155.369 93.3362 148.245C91.3432 147.35 89.2899 146.584 87.19 145.952C87.4945 144.734 87.3821 142.455 89.1094 139.13C90.3165 136.786 85.9702 137.301 81.4389 135.811C81.022 135.672 80.6668 135.585 80.3442 135.52C83.6175 131.003 84.9388 127.018 83.3167 125.575C79.2712 121.986 79.2712 121.986 67.818 133.532C63.0692 138.315 60.0587 143.295 59.7831 146.332C57.5955 146.647 56.972 148.578 56.5188 150.033C56.2325 150.955 55.908 152.001 55.2682 153.151C54.4417 154.634 54.3221 155.983 54.913 157.163C55.4694 158.273 56.5188 158.975 57.8347 159.478C55.8772 162.385 55.0145 165.807 56.3503 168.95C69.2281 199.266 87.7663 198.857 96.5316 192.69C105.302 186.524 102.06 183.983 92.0475 178.022ZM61.2912 171.114C62.9804 161.898 74.3285 162.656 71.3759 164.586C65.2877 168.582 60.3541 176.175 61.2912 171.114ZM77.5438 175.183C71.4557 179.177 66.5275 186.765 67.4591 181.711C69.1538 172.486 80.5 173.246 77.5438 175.183ZM88.4932 182.934C82.405 186.928 77.4804 194.519 78.4084 189.466C80.1067 180.244 91.4457 181.003 88.4932 182.934Z" fill="#FF4B3A"/>
<path d="M185.204 165.08C186.98 165.08 188.532 165.44 189.86 166.16C191.204 166.864 192.236 167.856 192.956 169.136C193.676 170.416 194.036 171.88 194.036 173.528C194.036 175.16 193.668 176.616 192.932 177.896C192.212 179.176 191.18 180.184 189.836 180.92C188.508 181.64 186.964 182 185.204 182H178.508V165.08H185.204ZM184.844 177.848C186.22 177.848 187.3 177.472 188.084 176.72C188.868 175.968 189.26 174.904 189.26 173.528C189.26 172.136 188.868 171.064 188.084 170.312C187.3 169.544 186.22 169.16 184.844 169.16H183.212V177.848H184.844ZM206.549 171.728V175.64H195.677V171.728H206.549ZM233.864 165.08L229.712 182H223.928L221.6 171.632L219.224 182H213.44L209.336 165.08H214.424L216.392 176.648L219.056 165.08H224.216L226.808 176.552L228.776 165.08H233.864ZM235.092 175.256C235.092 173.864 235.34 172.648 235.836 171.608C236.348 170.568 237.036 169.768 237.9 169.208C238.78 168.648 239.756 168.368 240.828 168.368C241.756 168.368 242.556 168.552 243.228 168.92C243.9 169.288 244.42 169.784 244.788 170.408V168.536H249.492V182H244.788V180.128C244.42 180.752 243.892 181.248 243.204 181.616C242.532 181.984 241.74 182.168 240.828 182.168C239.756 182.168 238.78 181.888 237.9 181.328C237.036 180.768 236.348 179.968 235.836 178.928C235.34 177.872 235.092 176.648 235.092 175.256ZM244.788 175.256C244.788 174.392 244.548 173.712 244.068 173.216C243.604 172.72 243.028 172.472 242.34 172.472C241.636 172.472 241.052 172.72 240.588 173.216C240.124 173.696 239.892 174.376 239.892 175.256C239.892 176.12 240.124 176.808 240.588 177.32C241.052 177.816 241.636 178.064 242.34 178.064C243.028 178.064 243.604 177.816 244.068 177.32C244.548 176.824 244.788 176.136 244.788 175.256ZM254.548 167.288C253.716 167.288 253.044 167.064 252.532 166.616C252.036 166.152 251.788 165.576 251.788 164.888C251.788 164.184 252.036 163.6 252.532 163.136C253.044 162.672 253.716 162.44 254.548 162.44C255.364 162.44 256.02 162.672 256.516 163.136C257.028 163.6 257.284 164.184 257.284 164.888C257.284 165.576 257.028 166.152 256.516 166.616C256.02 167.064 255.364 167.288 254.548 167.288ZM256.876 168.536V182H252.172V168.536H256.876ZM267.499 177.992V182H265.459C262.019 182 260.299 180.296 260.299 176.888V172.448H258.643V168.536H260.299V165.272H265.027V168.536H267.475V172.448H265.027V176.96C265.027 177.328 265.107 177.592 265.267 177.752C265.443 177.912 265.731 177.992 266.131 177.992H267.499ZM282.521 175.112C282.521 175.48 282.497 175.848 282.449 176.216H273.545C273.593 176.952 273.793 177.504 274.145 177.872C274.513 178.224 274.977 178.4 275.537 178.4C276.321 178.4 276.881 178.048 277.217 177.344H282.233C282.025 178.272 281.617 179.104 281.009 179.84C280.417 180.56 279.665 181.128 278.753 181.544C277.841 181.96 276.833 182.168 275.729 182.168C274.401 182.168 273.217 181.888 272.177 181.328C271.153 180.768 270.345 179.968 269.753 178.928C269.177 177.888 268.889 176.664 268.889 175.256C268.889 173.848 269.177 172.632 269.753 171.608C270.329 170.568 271.129 169.768 272.153 169.208C273.193 168.648 274.385 168.368 275.729 168.368C277.057 168.368 278.233 168.64 279.257 169.184C280.281 169.728 281.081 170.512 281.657 171.536C282.233 172.544 282.521 173.736 282.521 175.112ZM277.721 173.936C277.721 173.36 277.529 172.912 277.145 172.592C276.761 172.256 276.281 172.088 275.705 172.088C275.129 172.088 274.657 172.248 274.289 172.568C273.921 172.872 273.681 173.328 273.569 173.936H277.721ZM289.15 170.912C289.678 170.144 290.318 169.536 291.07 169.088C291.822 168.64 292.63 168.416 293.494 168.416V173.432H292.174C291.15 173.432 290.39 173.632 289.894 174.032C289.398 174.432 289.15 175.128 289.15 176.12V182H284.446V168.536H289.15V170.912Z" fill="#FA4A0C"/>
<path d="M44.2041 67.08C45.9801 67.08 47.5321 67.44 48.8601 68.16C50.2041 68.864 51.2361 69.856 51.9561 71.136C52.6761 72.416 53.0361 73.88 53.0361 75.528C53.0361 77.16 52.6681 78.616 51.9321 79.896C51.2121 81.176 50.1801 82.184 48.8361 82.92C47.5081 83.64 45.9641 84 44.2041 84H37.5081V67.08H44.2041ZM43.8441 79.848C45.2201 79.848 46.3001 79.472 47.0841 78.72C47.8681 77.968 48.2601 76.904 48.2601 75.528C48.2601 74.136 47.8681 73.064 47.0841 72.312C46.3001 71.544 45.2201 71.16 43.8441 71.16H42.2121V79.848H43.8441ZM65.5485 73.728V77.64H54.6765V73.728H65.5485ZM92.8635 67.08L88.7115 84H82.9275L80.5995 73.632L78.2235 84H72.4395L68.3355 67.08H73.4235L75.3915 78.648L78.0555 67.08H83.2155L85.8075 78.552L87.7755 67.08H92.8635ZM94.0916 77.256C94.0916 75.864 94.3396 74.648 94.8356 73.608C95.3476 72.568 96.0356 71.768 96.8996 71.208C97.7796 70.648 98.7556 70.368 99.8276 70.368C100.756 70.368 101.556 70.552 102.228 70.92C102.9 71.288 103.42 71.784 103.788 72.408V70.536H108.492V84H103.788V82.128C103.42 82.752 102.892 83.248 102.204 83.616C101.532 83.984 100.74 84.168 99.8276 84.168C98.7556 84.168 97.7796 83.888 96.8996 83.328C96.0356 82.768 95.3476 81.968 94.8356 80.928C94.3396 79.872 94.0916 78.648 94.0916 77.256ZM103.788 77.256C103.788 76.392 103.548 75.712 103.068 75.216C102.604 74.72 102.028 74.472 101.34 74.472C100.636 74.472 100.052 74.72 99.5876 75.216C99.1236 75.696 98.8916 76.376 98.8916 77.256C98.8916 78.12 99.1236 78.808 99.5876 79.32C100.052 79.816 100.636 80.064 101.34 80.064C102.028 80.064 102.604 79.816 103.068 79.32C103.548 78.824 103.788 78.136 103.788 77.256ZM113.548 69.288C112.716 69.288 112.044 69.064 111.532 68.616C111.036 68.152 110.788 67.576 110.788 66.888C110.788 66.184 111.036 65.6 111.532 65.136C112.044 64.672 112.716 64.44 113.548 64.44C114.364 64.44 115.02 64.672 115.516 65.136C116.028 65.6 116.284 66.184 116.284 66.888C116.284 67.576 116.028 68.152 115.516 68.616C115.02 69.064 114.364 69.288 113.548 69.288ZM115.876 70.536V84H111.172V70.536H115.876ZM126.499 79.992V84H124.459C121.019 84 119.299 82.296 119.299 78.888V74.448H117.643V70.536H119.299V67.272H124.027V70.536H126.475V74.448H124.027V78.96C124.027 79.328 124.107 79.592 124.267 79.752C124.443 79.912 124.731 79.992 125.131 79.992H126.499ZM141.521 77.112C141.521 77.48 141.497 77.848 141.449 78.216H132.545C132.593 78.952 132.793 79.504 133.145 79.872C133.513 80.224 133.977 80.4 134.537 80.4C135.321 80.4 135.881 80.048 136.217 79.344H141.233C141.025 80.272 140.617 81.104 140.009 81.84C139.417 82.56 138.665 83.128 137.753 83.544C136.841 83.96 135.833 84.168 134.729 84.168C133.401 84.168 132.217 83.888 131.177 83.328C130.153 82.768 129.345 81.968 128.753 80.928C128.177 79.888 127.889 78.664 127.889 77.256C127.889 75.848 128.177 74.632 128.753 73.608C129.329 72.568 130.129 71.768 131.153 71.208C132.193 70.648 133.385 70.368 134.729 70.368C136.057 70.368 137.233 70.64 138.257 71.184C139.281 71.728 140.081 72.512 140.657 73.536C141.233 74.544 141.521 75.736 141.521 77.112ZM136.721 75.936C136.721 75.36 136.529 74.912 136.145 74.592C135.761 74.256 135.281 74.088 134.705 74.088C134.129 74.088 133.657 74.248 133.289 74.568C132.921 74.872 132.681 75.328 132.569 75.936H136.721ZM148.15 72.912C148.678 72.144 149.318 71.536 150.07 71.088C150.822 70.64 151.63 70.416 152.494 70.416V75.432H151.174C150.15 75.432 149.39 75.632 148.894 76.032C148.398 76.432 148.15 77.128 148.15 78.12V84H143.446V70.536H148.15V72.912Z" fill="#FA4A0C"/>
<defs>
<filter id="filter0_d_1382_4" x="0" y="0" width="323" height="11" filterUnits="userSpaceOnUse" color-interpolation-filters="sRGB">
<feFlood flood-opacity="0" result="BackgroundImageFix"/>
<feColorMatrix in="SourceAlpha" type="matrix" values="0 0 0 0 0 0 0 0 0 0 0 0 0 0 0 0 0 0 127 0" result="hardAlpha"/>
<feOffset dy="4"/>
<feGaussianBlur stdDeviation="2"/>
<feColorMatrix type="matrix" values="0 0 0 0 0.766667 0 0 0 0 0.247122 0 0 0 0 0.0830556 0 0 0 0.1 0"/>
<feBlend mode="normal" in2="BackgroundImageFix" result="effect1_dropShadow_1382_4"/>
<feBlend mode="normal" in="SourceGraphic" in2="effect1_dropShadow_1382_4" result="shape"/>
</filter>
<filter id="filter1_d_1382_4" x="0" y="237" width="323" height="11" filterUnits="userSpaceOnUse" color-interpolation-filters="sRGB">
<feFlood flood-opacity="0" result="BackgroundImageFix"/>
<feColorMatrix in="SourceAlpha" type="matrix" values="0 0 0 0 0 0 0 0 0 0 0 0 0 0 0 0 0 0 127 0" result="hardAlpha"/>
<feOffset dy="4"/>
<feGaussianBlur stdDeviation="2"/>
<feColorMatrix type="matrix" values="0 0 0 0 0.766667 0 0 0 0 0.247122 0 0 0 0 0.0830556 0 0 0 0.1 0"/>
<feBlend mode="normal" in2="BackgroundImageFix" result="effect1_dropShadow_1382_4"/>
<feBlend mode="normal" in="SourceGraphic" in2="effect1_dropShadow_1382_4" result="shape"/>
</filter>
</defs>
</svg>
