<svg width="21" height="21" viewBox="0 0 21 21" fill="none" xmlns="http://www.w3.org/2000/svg">
<path d="M9.12192 0.570938C9.88317 -0.190312 11.1169 -0.190312 11.8782 0.570938L20.4291 9.12319C21.1904 9.88444 21.1904 11.1169 20.4291 11.8768L11.8782 20.4291C11.1169 21.1903 9.88448 21.1903 9.12454 20.4291L0.570979 11.8781C0.389938 11.6975 0.246306 11.4828 0.148306 11.2466C0.0503063 11.0103 -0.000137329 10.7571 -0.000137329 10.5013C-0.000137329 10.2455 0.0503063 9.99228 0.148306 9.75603C0.246306 9.51978 0.389938 9.30517 0.570979 9.1245L9.12192 0.570938ZM10.9594 1.48969C10.8376 1.36786 10.6723 1.29942 10.5 1.29942C10.3277 1.29942 10.1625 1.36786 10.0407 1.48969L1.48842 10.0406C1.36659 10.1625 1.29815 10.3277 1.29815 10.5C1.29815 10.6723 1.36659 10.8375 1.48842 10.9594L10.0407 19.5116C10.1625 19.6335 10.3277 19.7019 10.5 19.7019C10.6723 19.7019 10.8376 19.6335 10.9594 19.5116L19.5117 10.9594C19.6335 10.8375 19.7019 10.6723 19.7019 10.5C19.7019 10.3277 19.6335 10.1625 19.5117 10.0406L10.9594 1.48837V1.48969Z" fill="#AAAAAA"/>
<path d="M6.8972 7.59412C6.8954 7.63651 6.90229 7.67882 6.91745 7.71844C6.93261 7.75806 6.95571 7.79417 6.98534 7.82453C7.01497 7.8549 7.05049 7.87888 7.08973 7.89501C7.12897 7.91114 7.17109 7.91907 7.21351 7.91831H8.29632C8.47745 7.91831 8.62182 7.77 8.64545 7.59019C8.76357 6.72919 9.3542 6.10181 10.4068 6.10181C11.3072 6.10181 12.1314 6.552 12.1314 7.63481C12.1314 8.46825 11.6406 8.8515 10.8649 9.43425C9.98157 10.0761 9.28201 10.8255 9.33189 12.0422L9.33582 12.327C9.3372 12.4131 9.37238 12.4952 9.43377 12.5556C9.49515 12.616 9.57783 12.6499 9.66395 12.6499H10.7284C10.8154 12.6499 10.8989 12.6153 10.9604 12.5538C11.0219 12.4922 11.0565 12.4088 11.0565 12.3217V12.1839C11.0565 11.2416 11.4148 10.9672 12.3821 10.2336C13.1814 9.62587 14.0149 8.95125 14.0149 7.53506C14.0149 5.55188 12.3401 4.59375 10.5066 4.59375C8.84364 4.59375 7.02189 5.36812 6.8972 7.59412ZM8.94076 15.1581C8.94076 15.8576 9.49857 16.3748 10.2664 16.3748C11.0657 16.3748 11.6156 15.8576 11.6156 15.1581C11.6156 14.4336 11.0644 13.9243 10.2651 13.9243C9.49857 13.9243 8.94076 14.4336 8.94076 15.1581Z" fill="#AAAAAA"/>
</svg>
