<svg width="87" height="86" viewBox="0 0 87 86" fill="none" xmlns="http://www.w3.org/2000/svg">
<ellipse cx="43.5" cy="43" rx="43.5" ry="43" fill="white"/>
<path d="M43.5 19.2609C46.4598 19.2609 48.98 20.3619 51.0607 22.5639C53.1415 24.7658 54.1818 27.433 54.1818 30.5652C54.1818 33.6975 53.1415 36.3646 51.0607 38.5666C48.98 40.7686 46.4598 41.8696 43.5 41.8696C40.5402 41.8696 38.02 40.7686 35.9393 38.5666C33.8585 36.3646 32.8182 33.6975 32.8182 30.5652C32.8182 27.433 33.8585 24.7658 35.9393 22.5639C38.02 20.3619 40.5402 19.2609 43.5 19.2609ZM52.5795 30.6359C51.7116 30.8243 50.471 30.736 48.8576 30.3709C47.2442 30.0059 45.8812 29.5761 44.7685 29.0815C44.0118 28.7283 43.2886 28.322 42.5987 27.8628C41.9089 27.4035 41.1188 26.8265 40.2287 26.1318C39.3385 25.437 38.6487 24.9248 38.1591 24.5951C38.5152 27.3976 37.2689 29.3995 34.4205 30.6005C34.4427 33.2618 35.3384 35.5226 37.1076 37.3831C38.8768 39.2437 41.0076 40.1739 43.5 40.1739C45.9924 40.1739 48.1232 39.2437 49.8924 37.3831C51.6616 35.5226 52.5573 33.2735 52.5795 30.6359ZM47.8395 62.1821H39.3608C39.1383 62.1821 38.849 62.135 38.4929 62.0407C38.1368 61.9465 37.714 61.711 37.2244 61.3342C36.7348 60.9574 36.4122 60.4864 36.2564 59.9212C35.9003 58.6494 35.5999 56.7418 35.3551 54.1984C35.1103 51.6549 34.9212 49.3881 34.7876 47.3981C34.6541 45.4081 34.5095 44.3071 34.3537 44.0951C34.1979 44.1658 33.8474 44.3542 33.3022 44.6603C32.757 44.9665 32.1951 45.2373 31.6165 45.4728C30.9489 45.7319 30.0365 46.0851 28.8793 46.5326C27.7221 46.9801 26.8097 47.3392 26.142 47.61C25.4744 47.8809 24.7345 48.2047 23.9222 48.5815C23.11 48.9583 22.4535 49.341 21.9528 49.7296C21.4521 50.1182 21.0682 50.5127 20.8011 50.913C20.267 52.4203 20 58.4493 20 69H67C67 66.3623 66.9388 62.9239 66.8164 58.6848C66.694 54.4456 66.4882 51.8551 66.1989 50.913C65.9318 50.5127 65.5479 50.1182 65.0472 49.7296C64.5465 49.341 63.89 48.9583 63.0778 48.5815C62.2655 48.2047 61.5256 47.8809 60.858 47.61C60.1903 47.3392 59.2779 46.9801 58.1207 46.5326C56.9635 46.0851 56.0511 45.7319 55.3835 45.4728C54.8049 45.2373 54.243 44.9665 53.6978 44.6603C53.1526 44.3542 52.8021 44.1658 52.6463 44.0951C52.4905 44.3071 52.3626 45.4081 52.2624 47.3981C52.1623 49.3881 52.0065 51.6549 51.7951 54.1984C51.5837 56.7418 51.3 58.6494 50.9439 59.9212C50.7881 60.4864 50.4654 60.9574 49.9759 61.3342C49.4863 61.711 49.0634 61.9465 48.7074 62.0407C48.3513 62.135 48.062 62.1821 47.8395 62.1821ZM43.5 45.2609L49.9091 43V49.7826L43.5 47.5217L37.0909 49.7826V43L43.5 45.2609ZM43.5 53.1739C43.233 53.1739 42.9882 53.062 42.7656 52.8383C42.5431 52.6146 42.4318 52.3496 42.4318 52.0435C42.4318 51.7373 42.5431 51.4724 42.7656 51.2486C42.9882 51.0249 43.233 50.913 43.5 50.913C43.767 50.913 44.0118 51.0249 44.2344 51.2486C44.4569 51.4724 44.5682 51.7373 44.5682 52.0435C44.5682 52.3496 44.4569 52.6146 44.2344 52.8383C44.0118 53.062 43.767 53.1739 43.5 53.1739ZM43.5 57.6956C43.233 57.6956 42.9882 57.5838 42.7656 57.36C42.5431 57.1363 42.4318 56.8714 42.4318 56.5652C42.4318 56.259 42.5431 55.9941 42.7656 55.7704C42.9882 55.5466 43.233 55.4348 43.5 55.4348C43.767 55.4348 44.0118 55.5466 44.2344 55.7704C44.4569 55.9941 44.5682 56.259 44.5682 56.5652C44.5682 56.8714 44.4569 57.1363 44.2344 57.36C44.0118 57.5838 43.767 57.6956 43.5 57.6956Z" fill="#FF4B3A"/>
</svg>
