<svg width="28" height="26" viewBox="0 0 28 26" fill="none" xmlns="http://www.w3.org/2000/svg">
<path d="M7.83132 21.709H0.938227C0.810577 21.709 0.682927 21.6878 0.555277 21.6455C0.427627 21.6032 0.310615 21.5397 0.20424 21.4551C0.03404 21.2689 -0.029785 21.0573 0.012765 20.8203L4.41669 1.72656C4.54434 1.20182 4.85814 0.782878 5.3581 0.469727C5.85807 0.156576 6.44845 0 7.12925 0H17.7242C19.8517 0 21.5696 0.495117 22.878 1.48535C24.1865 2.47559 24.8407 3.77474 24.8407 5.38281C24.8407 5.94141 24.7556 6.54655 24.5854 7.19824C24.4152 7.84994 24.1705 8.52702 23.8514 9.22949C23.5323 9.93197 23.1068 10.609 22.5749 11.2607C22.043 11.9124 21.4367 12.4964 20.7559 13.0127C20.0751 13.529 19.256 13.9395 18.2986 14.2441C17.3412 14.5488 16.32 14.7012 15.235 14.7012H10.6077L8.75678 21.1504C8.71423 21.252 8.65041 21.3493 8.56531 21.4424C8.48021 21.5355 8.37383 21.6032 8.24618 21.6455C8.11853 21.6878 7.98024 21.709 7.83132 21.709ZM2.08708 20.2109H7.06542L8.94826 13.7871C8.99081 13.6178 9.09718 13.4782 9.26738 13.3682C9.43758 13.2581 9.62906 13.2031 9.84181 13.2031H15.235C15.8945 13.2031 16.5222 13.127 17.1178 12.9746C17.7135 12.8223 18.2454 12.6149 18.7135 12.3525C19.1815 12.0902 19.623 11.7812 20.0378 11.4258C20.4527 11.0703 20.8091 10.6895 21.1069 10.2832C21.4048 9.87695 21.676 9.45801 21.9207 9.02637C22.1653 8.59473 22.3621 8.15885 22.5111 7.71875C22.66 7.27865 22.7717 6.86393 22.8461 6.47461C22.9206 6.08529 22.9578 5.72135 22.9578 5.38281C22.9578 4.79036 22.8355 4.25293 22.5908 3.77051C22.3462 3.28809 21.9951 2.88184 21.5377 2.55176C21.0803 2.22168 20.5272 1.96354 19.8783 1.77734C19.2294 1.59115 18.5114 1.49805 17.7242 1.49805H7.12925C6.63992 1.49805 6.35271 1.67578 6.26761 2.03125L2.08708 20.2109ZM11.0864 26H4.1933C3.91672 26 3.6827 25.9111 3.49122 25.7334C3.29975 25.5557 3.22529 25.3568 3.26784 25.1367L4.16139 21.125C4.20394 20.9219 4.33159 20.7611 4.54434 20.6426C4.75709 20.5241 4.99111 20.4818 5.24641 20.5156C5.41661 20.5326 5.56553 20.5876 5.69318 20.6807C5.82083 20.7738 5.91657 20.8796 5.9804 20.998C6.04422 21.1165 6.05486 21.2435 6.01231 21.3789L5.34215 24.502H10.3205L12.1076 18.002C12.1501 17.8835 12.214 17.7819 12.2991 17.6973C12.3842 17.6126 12.4905 17.5449 12.6182 17.4941C12.7458 17.4434 12.8841 17.418 13.0331 17.418H18.4263C19.1709 17.418 19.8783 17.3164 20.5484 17.1133C21.2186 16.9102 21.8037 16.6436 22.3036 16.3135C22.8036 15.9834 23.2716 15.5983 23.7078 15.1582C24.1439 14.7181 24.5056 14.2568 24.7928 13.7744C25.08 13.292 25.3247 12.8011 25.5268 12.3018C25.7289 11.8024 25.8778 11.3242 25.9736 10.8672C26.0693 10.4102 26.1172 9.98698 26.1172 9.59766C26.1172 7.87109 25.2236 6.69466 23.4365 6.06836C23.1812 5.98372 23.0057 5.84408 22.91 5.64941C22.8142 5.45475 22.8195 5.26432 22.9259 5.07812C23.0323 4.89193 23.2078 4.76074 23.4525 4.68457C23.6971 4.6084 23.9365 4.61263 24.1705 4.69727C25.0002 4.98503 25.7023 5.36165 26.2767 5.82715C26.8512 6.29264 27.282 6.84701 27.5692 7.49023C27.8564 8.13346 28 8.83594 28 9.59766C28 10.2747 27.8883 11.0111 27.6649 11.8066C27.4415 12.6022 27.0745 13.4232 26.5639 14.2695C26.0533 15.1159 25.4417 15.8818 24.729 16.5674C24.0163 17.2529 23.1121 17.8158 22.0164 18.2559C20.9208 18.696 19.724 18.916 18.4263 18.916H13.799L12.0119 25.416C11.9693 25.5853 11.8629 25.7249 11.6927 25.835C11.5225 25.945 11.3204 26 11.0864 26ZM12.331 10.4863H10.4801C10.1822 10.4863 9.93754 10.3932 9.74607 10.207C9.70352 10.1732 9.66629 10.1309 9.63437 10.0801C9.60246 10.0293 9.57587 9.97852 9.55459 9.92773C9.53332 9.87695 9.52268 9.82194 9.52268 9.7627V9.59766L10.7673 4.13867C10.7885 4.03711 10.8311 3.94824 10.8949 3.87207C10.9587 3.7959 11.0279 3.73242 11.1023 3.68164C11.1768 3.63086 11.2672 3.58854 11.3736 3.55469C11.48 3.52083 11.5864 3.50391 11.6927 3.50391H14.6925C15.8626 3.50391 16.7349 3.7832 17.3093 4.3418C17.9476 4.93424 18.1497 5.77214 17.9157 6.85547C17.7667 7.70182 17.4742 8.3916 17.0381 8.9248C16.6019 9.45801 16.0009 9.85156 15.235 10.1055C14.4691 10.3594 13.5011 10.4863 12.331 10.4863ZM11.597 8.98828H12.331C13.65 8.98828 14.5649 8.80632 15.0754 8.44238C15.586 8.07845 15.9158 7.46484 16.0647 6.60156C16.1924 5.97526 16.1286 5.54362 15.8733 5.30664C15.7882 5.23893 15.6765 5.17969 15.5382 5.12891C15.3999 5.07812 15.2669 5.04427 15.1393 5.02734C15.0116 5.01042 14.8627 5.00195 14.6925 5.00195H12.4905L11.597 8.98828Z" fill="#F8F8F8"/>
</svg>
